<svg width="97" height="84" xmlns="http://www.w3.org/2000/svg">
 <!-- Created with Method Draw - http://github.com/duopixel/Method-Draw/ -->

 <g>
  <title>Layer 1</title>
  <path stroke="#ea313d" id="area-1" d="m1.424157,42.311801l20.162929,-41.112362l53.767806,0l20.162923,41.112362l-20.162923,41.112362l-53.767806,0l-20.162929,-41.112362z" stroke-width="1.5" fill="#FFC64C"/>
  <path id="area-2" d="m1.873595,42.110314c26.29214,-2.02247 33.03371,-19.55057 33.03371,-19.55057c3.37079,-10.33708 13.70787,-13.93258 23.82023,-11.68539c10.11236,2.24719 14.38202,15.05618 14.38202,15.05618c0,0 10.11236,29.88764 -1.12359,33.70787c-11.23596,3.82022 -34.83147,-3.37079 -36.4045,5.39326c-0.78652,4.38202 -1.01123,7.47191 -2.75281,10.08427c-1.74157,2.61236 -4.77528,5.64607 -11.62921,8.11798" opacity="0.5" stroke="#005b5e" fill="#5fff0f"/>
 </g>
</svg>