<svg width="97.00000000000001" height="84.00000000000001" xmlns="http://www.w3.org/2000/svg">
 <!-- Created with Method Draw - http://github.com/duopixel/Method-Draw/ -->

 <g>
  <title>background</title>
  <rect fill="none" id="canvas_background" height="402" width="582" y="-1" x="-1"/>
 </g>
 <g>
  <title>Layer 1</title>
  <path fill="#FFC64C" stroke-width="1.5" d="m1.424157,42.311801l20.162929,-41.112362l53.767806,0l20.162923,41.112362l-20.162923,41.112362l-53.767806,0l-20.162929,-41.112362z" id="area-1" stroke="#ea313d"/>
  <path fill="#5fff0f" stroke="#005b5e" opacity="0.5" d="m1.873595,42.110314c13.948391,-0.77247 17.096211,-12.98807 12.721211,0.605679c1.25,8.124999 3.395371,5.442418 13.507731,7.689608c10.11236,2.24719 -21.242977,6.306181 -0.774229,8.806181c16.093749,-0.625 -7.231389,5.200141 -2.84234,7.614122c4.389049,2.41398 12.668527,-10.55829 11.095497,-1.79424c-0.78652,4.38202 -1.01123,7.47191 -2.75281,10.08427c-1.74157,2.61236 -4.77528,5.64607 -11.62921,8.11798" id="area-2"/>
 </g>
</svg>