<svg width="97" height="84" xmlns="http://www.w3.org/2000/svg">
 <!-- Created with Method Draw - http://github.com/duopixel/Method-Draw/ -->

 <g>
  <title>background</title>
  <rect fill="none" id="canvas_background" height="402" width="582" y="-1" x="-1"/>
 </g>
 <g>
  <title>Layer 1</title>
  <path fill="#FFC64C" stroke-width="1.5" d="m1.424157,42.311801l20.162929,-41.112362l53.767806,0l20.162923,41.112362l-20.162923,41.112362l-53.767806,0l-20.162929,-41.112362z" id="svg_1" stroke="#ea313d"/>
  <path fill="#5fff0f" stroke="#005b5e" opacity="0.5" d="m1.873595,42.110314c12.843864,15.391324 56.309573,-11.447122 26.481986,-4.205742c-29.827588,7.241379 15.776835,-9.967062 3.475401,-14.961252c-12.301434,-4.99419 -7.85936,-3.047269 19.037193,-11.495545c10.862069,-0.689655 3.905463,15.577295 -1.296004,14.914766c-5.201467,-0.662529 -2.072848,4.215417 5.31964,6.944984c7.392488,2.729567 -12.390541,22.127083 -14.132121,24.739443c-1.74157,2.61236 -8.740798,6.852966 -19.560245,25.186946" id="svg_3"/>
 </g>
</svg>