<svg width="97" height="84" xmlns="http://www.w3.org/2000/svg">
 <!-- Created with Method Draw - http://github.com/duopixel/Method-Draw/ -->

 <g>
  <title>background</title>
  <rect fill="none" id="canvas_background" height="402" width="582" y="-1" x="-1"/>
 </g>
 <g>
  <title>Layer 1</title>
  <path fill="#FFC64C" stroke-width="1.5" d="m1.424157,42.311801l20.162929,-41.112362l53.767806,0l20.162923,41.112362l-20.162923,41.112362l-53.767806,0l-20.162929,-41.112362z" id="area-1" stroke="#ea313d"/>
  <path fill="#5fff0f" stroke="#005b5e" opacity="1" d="m1.873595,42.110314c16.809381,-10.298332 6.137157,-3.516087 15.619916,6.828741c5.956997,3.283611 3.535456,-1.6912 13.647816,0.55599c10.11236,2.24719 -19.411085,15.401008 7.485468,6.952732c10.862069,-0.689655 23.215809,13.508329 11.979859,17.328559c-11.23596,3.82022 -13.452159,-17.508722 -15.025189,-8.744672c-0.78652,4.38202 -1.01123,7.47191 -2.75281,10.08427c-1.74157,2.61236 -4.77528,5.64607 -11.62921,8.11798" id="area-2"/>
 </g>
</svg>