<svg width="97" height="84" xmlns="http://www.w3.org/2000/svg">
 <!-- Created with Method Draw - http://github.com/duopixel/Method-Draw/ -->

 <g>
  <title>background</title>
  <rect fill="none" id="canvas_background" height="402" width="582" y="-1" x="-1"/>
 </g>
 <g>
  <title>Layer 1</title>
  <g id="svg_2">
   <path fill="#FFC64C" stroke-width="1.5" d="m1.42416,42.08708l20.16293,-41.11236l53.7678,0l20.16293,41.11236l-20.16293,41.11236l-53.7678,0l-20.16293,-41.11236z" id="area-1" stroke="#8C5F00"/>
  </g>
  <path stroke="#000" id="svg_9" d="m42.219612,22.222858c-0.347975,2.491058 0.637602,4.861568 1.406935,7.013517c1.639054,3.795667 3.540667,7.448872 5.927087,10.398829c1.628318,1.869255 3.09547,4.021983 4.939241,5.50303c2.410436,2.265063 4.998618,4.119899 7.682353,5.662431c1.995533,1.21286 4.088266,2.073315 6.226433,2.637655c0.621925,0.22483 2.360744,0.859811 1.279032,-0.63c-0.897266,-0.528365 -1.851799,-0.913883 -2.754001,-1.464945c-4.379806,-2.507896 -9.033865,-4.711399 -12.567164,-9.286838c-0.585474,-1.084356 1.12337,0.585702 1.417819,1.043678c2.947697,2.926727 6.315203,4.889153 9.636277,6.827553c1.689467,0.780628 3.536227,2.444627 5.331112,1.2638c1.550529,-0.826241 -0.3708,-0.952895 -1.055879,-1.267594c-3.045047,-1.207518 -6.125972,-2.368247 -8.920565,-4.504894c-1.595754,-0.814185 -2.936941,-2.313074 -4.370479,-3.548508c-1.548727,-1.491934 -2.966156,-3.23513 -4.47389,-4.808508c-0.986699,-1.043396 -1.967054,-2.096553 -2.783935,-3.404289c-1.381398,-1.927827 -2.721113,-3.910464 -3.973162,-6.003996c-0.817969,-1.287871 -1.738177,-2.466979 -2.313142,-4.011519l-0.634073,-1.419402zm32.158123,24.330982c-0.188799,-0.008298 -0.383713,0.04934 -0.546993,0.201147c-1.219161,0.850125 -0.957913,2.428921 -1.654578,3.643386c-0.522499,0.971569 -1.132079,1.457357 -2.002908,1.821693c0.174166,0.485782 0.522495,1.21446 0.522495,1.821693c0,1.335906 -1.132076,2.550367 -2.002908,2.428921c-0.348334,-0.121446 -1.132079,-0.728679 -1.393328,0c-0.087083,0.242897 -0.087083,0.485787 0,0.607233c0,0.485787 0.435415,0.728679 0.783746,0.971569c0.957913,0.364336 2.00291,-0.121446 2.786658,-0.850125c0.609579,-0.485782 1.044995,-1.335906 1.219161,-2.30748l0.174166,-1.578796c0.087083,-0.485782 0.435416,-0.607233 0.870832,-1.457352c0.522497,-0.971569 1.044996,-2.671823 1.741661,-3.400496c0.261247,-0.242892 0.522495,-0.364341 0.870829,-0.485787c-0.174166,-0.364336 -0.348334,-0.607228 -0.522499,-0.971563c-0.174166,-0.121451 -0.34833,-0.364341 -0.522495,-0.364341c-0.09797,-0.04554 -0.210566,-0.074722 -0.323839,-0.079701zm3.687419,4.584594c-0.32739,-0.00507 -0.669451,0.094878 -1.01234,0.231507l0.696663,0.607233c-0.174169,0.485782 -0.609578,1.457352 -0.522499,2.064585c0.087087,1.21446 1.306245,1.21446 1.828745,0.485782c0.609582,-0.971569 0.609582,-2.428921 -0.261247,-3.157599c-0.228594,-0.159396 -0.474687,-0.227564 -0.729322,-0.231507zm-1.679071,0.59585c-0.06817,0.000336 -0.134799,0.001233 -0.201378,0.003795c-0.482601,0.036884 -0.96501,0.087642 -1.447753,0.117651c-0.303292,0.005449 -0.61288,-0.000827 -0.90621,0.121446c-0.397864,0.354154 -0.663843,0.94132 -0.819126,1.55223c-0.020899,0.088042 -0.038631,0.178502 -0.051706,0.269457c0.484303,0.305904 1.024725,0.273125 1.543001,0.24669c0.314041,-0.01171 0.628172,0.042952 0.941586,0.064518c0.224159,0.013843 0.447796,0.056533 0.672172,0.045545c0.275135,-0.012728 0.529923,-0.23028 0.67489,-0.5541c0.125305,-0.276753 0.243858,-0.56299 0.321121,-0.872897c0.062407,-0.27814 0.073934,-0.664689 -0.133345,-0.831147c-0.180391,-0.138934 -0.388745,-0.164221 -0.593257,-0.163191l0.000003,0.000002zm0.3184,2.793258c-0.087087,0.121446 -0.174166,0.121446 -0.261251,0.242892c-0.087083,0.607233 1.044998,2.06459 1.219163,0.728679c-0.435416,-0.242892 -0.696668,-0.485787 -0.957912,-0.971569l0,-0.000002z" stroke-opacity="null" stroke-width="0" fill="#4c4c4c"/>
  <path stroke="#000" id="svg_11" d="m56.575952,20.938453c0.324084,2.529195 -0.593819,4.936007 -1.310319,7.120902c-1.526507,3.85379 -3.297534,7.562931 -5.520076,10.55805c-1.51651,1.897876 -2.882911,4.083567 -4.600069,5.58729c-2.244915,2.299753 -4.655368,4.182989 -7.154811,5.74914c-1.858504,1.23143 -3.807529,2.105052 -5.798868,2.678035c-0.57922,0.228272 -2.198636,0.872976 -1.191208,-0.639641c0.835656,-0.536463 1.724637,-0.927879 2.564886,-1.487378c4.079054,-2.546298 8.413519,-4.783535 11.704192,-9.429039c0.545262,-1.100949 -1.046237,0.594675 -1.320464,1.059666c-2.745282,2.971535 -5.881539,4.964006 -8.974561,6.932097c-1.57345,0.792573 -3.293394,2.482053 -4.965028,1.28315c-1.444056,-0.838894 0.345343,-0.967496 0.983375,-1.287005c2.83594,-1.226007 5.705304,-2.404511 8.307994,-4.57387c1.486176,-0.826654 2.735266,-2.348487 4.070366,-3.602842c1.442378,-1.51478 2.762473,-3.284663 4.166669,-4.882135c0.918946,-1.059367 1.83198,-2.128661 2.592766,-3.456415c1.286533,-1.957344 2.534249,-3.970339 3.700325,-6.095927c0.761801,-1.307591 1.618817,-2.504753 2.154303,-4.072945l0.590527,-1.441132zm-29.949842,24.70353c0.17583,-0.008421 0.35736,0.05009 0.509432,0.204229c1.135439,0.863137 0.892126,2.466106 1.540959,3.699166c0.486615,0.986453 1.054335,1.479679 1.865366,1.849589c-0.162208,0.493214 -0.486615,1.233059 -0.486615,1.849589c0,1.356363 1.054335,2.58941 1.865366,2.466106c0.324416,-0.123303 1.054344,-0.739833 1.297647,0c0.081104,0.246619 0.081104,0.493226 0,0.61653c0,0.493226 -0.405511,0.739833 -0.729918,0.986453c-0.892136,0.36991 -1.865375,-0.123316 -2.595303,-0.863149c-0.567719,-0.493214 -0.97324,-1.356363 -1.135448,-2.342803l-0.162199,-1.60297c-0.081104,-0.493226 -0.40552,-0.616542 -0.811032,-1.479666c-0.486624,-0.986453 -0.97324,-2.712738 -1.622063,-3.452571c-0.243312,-0.246607 -0.486615,-0.369923 -0.811032,-0.493226c0.162208,-0.36991 0.324416,-0.616517 0.486615,-0.98644c0.162208,-0.123303 0.324416,-0.36991 0.486624,-0.36991c0.09124,-0.046247 0.196101,-0.075875 0.301599,-0.080925zm-3.434205,4.654796c0.304901,-0.00515 0.623479,0.096324 0.942823,0.235051l-0.648833,0.61653c0.162217,0.493214 0.567719,1.479666 0.486624,2.096196c-0.081104,1.233047 -1.216543,1.233047 -1.703167,0.493214c-0.567719,-0.98644 -0.567719,-2.466106 0.243312,-3.20594c0.212896,-0.161838 0.442088,-0.231059 0.67924,-0.235051zm1.563767,0.604974c0.063489,0.000336 0.125539,0.001244 0.187552,0.003844c0.449457,0.037453 0.898739,0.088985 1.348334,0.11946c0.282462,0.005523 0.57079,-0.000846 0.843984,0.123303c0.370539,0.359574 0.61825,0.955729 0.762871,1.575991c0.019469,0.089396 0.035978,0.181242 0.048161,0.273586c-0.451053,0.310591 -0.954361,0.277305 -1.437047,0.250475c-0.292478,-0.011891 -0.585039,0.04361 -0.876927,0.065501c-0.208764,0.014056 -0.417049,0.057392 -0.626016,0.046247c-0.256242,-0.012924 -0.493532,-0.233808 -0.628543,-0.562584c-0.116704,-0.281 -0.227117,-0.571614 -0.299072,-0.886272c-0.058121,-0.282393 -0.068856,-0.674867 0.124183,-0.843869c0.168009,-0.141066 0.362054,-0.166739 0.55252,-0.165694l0,0.000012zm-0.296536,2.836017c0.081104,0.123316 0.162208,0.123316 0.243312,0.246619c0.081104,0.61653 -0.97324,2.096196 -1.135448,0.739833c0.40552,-0.246607 0.648833,-0.493226 0.892136,-0.98644l0,-0.000012z" stroke-opacity="null" stroke-width="0" fill="#4c4c4c"/>
 </g>
</svg>