<svg width="97" height="84" xmlns="http://www.w3.org/2000/svg">
 <!-- Created with Method Draw - http://github.com/duopixel/Method-Draw/ -->
 <defs>
  <linearGradient spreadMethod="pad" y2="0" x2="0" y1="0" x1="1" id="svg_1">
   <stop offset="0" id="area-1" stop-opacity="0.996094" stop-color="#5fff0f"/>
   <stop offset="1" id="area-2" stop-opacity="0.996094" stop-color="#ffc64c"/>
  </linearGradient>
 </defs>
 <g>
  <title>background</title>
  <rect x="-1" y="-1" width="99" height="86" id="canvas_background" fill="none"/>
 </g>
 <g>
  <title>Layer 1</title>
  <g id="svg_2">
   <path stroke="#8C5F00"  d="m1.42416,42.08708l20.16293,-41.11236l53.7678,0l20.16293,41.11236l-20.16293,41.11236l-53.7678,0l-20.16293,-41.11236z" stroke-width="1.5" fill="url(#svg_1)"/>
  </g>
  <path fill="#4c4c4c" stroke-width="0" stroke-opacity="null" d="m42.21961,22.22286c-0.34797,2.49106 0.6376,4.86157 1.40694,7.01351c1.63905,3.79567 3.54066,7.44888 5.92708,10.39883c1.62832,1.86926 3.09547,4.02199 4.93924,5.50303c2.41044,2.26507 4.99862,4.1199 7.68236,5.66244c1.99553,1.21286 4.08826,2.07331 6.22643,2.63765c0.62193,0.22483 2.36074,0.85981 1.27903,-0.63c-0.89726,-0.52836 -1.8518,-0.91388 -2.754,-1.46494c-4.3798,-2.5079 -9.03386,-4.7114 -12.56716,-9.28684c-0.58548,-1.08436 1.12337,0.5857 1.41782,1.04368c2.94769,2.92672 6.3152,4.88915 9.63627,6.82755c1.68947,0.78063 3.53623,2.44463 5.33112,1.2638c1.55053,-0.82624 -0.3708,-0.9529 -1.05588,-1.2676c-3.04505,-1.20751 -6.12597,-2.36824 -8.92057,-4.50489c-1.59575,-0.81418 -2.93694,-2.31307 -4.37048,-3.54851c-1.54872,-1.49193 -2.96615,-3.23513 -4.47389,-4.80851c-0.9867,-1.04339 -1.96705,-2.09655 -2.78393,-3.40428c-1.3814,-1.92783 -2.72112,-3.91047 -3.97316,-6.004c-0.81797,-1.28787 -1.73818,-2.46698 -2.31315,-4.01152l-0.63407,-1.4194zm32.15813,24.33098c-0.1888,-0.0083 -0.38372,0.04934 -0.547,0.20115c-1.21916,0.85012 -0.95791,2.42892 -1.65458,3.64338c-0.52249,0.97157 -1.13208,1.45736 -2.0029,1.8217c0.17416,0.48578 0.52249,1.21446 0.52249,1.82169c0,1.33591 -1.13207,2.55037 -2.00291,2.42892c-0.34833,-0.12145 -1.13208,-0.72868 -1.39333,0c-0.08708,0.2429 -0.08708,0.48579 0,0.60723c0,0.48579 0.43542,0.72868 0.78375,0.97157c0.95791,0.36434 2.00291,-0.12144 2.78666,-0.85012c0.60958,-0.48578 1.04499,-1.33591 1.21916,-2.30748l0.17417,-1.5788c0.08708,-0.48578 0.43541,-0.60723 0.87083,-1.45735c0.52249,-0.97157 1.04499,-2.67182 1.74166,-3.4005c0.26125,-0.24289 0.52249,-0.36434 0.87083,-0.48578c-0.17417,-0.36434 -0.34834,-0.60723 -0.5225,-0.97157c-0.17417,-0.12145 -0.34833,-0.36434 -0.5225,-0.36434c-0.09797,-0.04554 -0.21056,-0.07472 -0.32384,-0.0797l0.00001,0zm3.68741,4.58459c-0.32739,-0.00507 -0.66945,0.09488 -1.01234,0.23151l0.69667,0.60723c-0.17417,0.48579 -0.60958,1.45736 -0.5225,2.06459c0.08709,1.21446 1.30624,1.21446 1.82874,0.48578c0.60959,-0.97157 0.60959,-2.42892 -0.26124,-3.1576c-0.2286,-0.15939 -0.47469,-0.22756 -0.72933,-0.2315l0,-0.00001zm-1.67907,0.59585c-0.06817,0.00034 -0.1348,0.00124 -0.20137,0.0038c-0.48261,0.03688 -0.96501,0.08764 -1.44776,0.11765c-0.30329,0.00545 -0.61288,-0.00083 -0.90621,0.12145c-0.39786,0.35415 -0.66384,0.94132 -0.81912,1.55223c-0.0209,0.08804 -0.03863,0.1785 -0.05171,0.26945c0.4843,0.30591 1.02473,0.27313 1.543,0.24669c0.31404,-0.01171 0.62817,0.04295 0.94159,0.06452c0.22416,0.01384 0.44779,0.05653 0.67217,0.04555c0.27513,-0.01273 0.52992,-0.23028 0.67489,-0.5541c0.1253,-0.27676 0.24386,-0.56299 0.32112,-0.8729c0.06241,-0.27814 0.07393,-0.66469 -0.13334,-0.83115c-0.1804,-0.13893 -0.38875,-0.16422 -0.59326,-0.16319l0,0zm0.3184,2.79326c-0.08708,0.12145 -0.17416,0.12145 -0.26125,0.24289c-0.08708,0.60724 1.045,2.06459 1.21917,0.72868c-0.43542,-0.24289 -0.69667,-0.48578 -0.95792,-0.97157l0,0z" id="svg_9" stroke="#000"/>
  <path fill="#4c4c4c" stroke-width="0" stroke-opacity="null" d="m56.57595,20.93845c0.32409,2.5292 -0.59382,4.93601 -1.31032,7.12091c-1.5265,3.85379 -3.29753,7.56293 -5.52007,10.55804c-1.51651,1.89788 -2.88291,4.08357 -4.60007,5.5873c-2.24492,2.29975 -4.65537,4.18298 -7.15481,5.74913c-1.85851,1.23144 -3.80753,2.10506 -5.79887,2.67804c-0.57922,0.22827 -2.19864,0.87298 -1.19121,-0.63964c0.83566,-0.53646 1.72464,-0.92788 2.56489,-1.48738c4.07905,-2.5463 8.41352,-4.78353 11.70419,-9.42904c0.54526,-1.10095 -1.04624,0.59468 -1.32046,1.05967c-2.74529,2.97153 -5.88154,4.964 -8.97457,6.93209c-1.57345,0.79258 -3.29339,2.48206 -4.96502,1.28315c-1.44406,-0.83889 0.34534,-0.96749 0.98337,-1.287c2.83594,-1.22601 5.7053,-2.40451 8.308,-4.57387c1.48617,-0.82665 2.73526,-2.34849 4.07036,-3.60284c1.44238,-1.51478 2.76247,-3.28467 4.16667,-4.88214c0.91895,-1.05936 1.83198,-2.12866 2.59277,-3.45641c1.28653,-1.95735 2.53424,-3.97034 3.70032,-6.09593c0.7618,-1.30759 1.61882,-2.50475 2.1543,-4.07294l0.59053,-1.44114zm-29.94984,24.70353c0.17583,-0.00842 0.35736,0.05009 0.50943,0.20423c1.13544,0.86314 0.89213,2.46611 1.54096,3.69917c0.48662,0.98645 1.05434,1.47968 1.86537,1.84959c-0.16221,0.49321 -0.48662,1.23306 -0.48662,1.84959c0,1.35636 1.05434,2.58941 1.86537,2.4661c0.32441,-0.1233 1.05434,-0.73983 1.29765,0c0.0811,0.24662 0.0811,0.49323 0,0.61653c0,0.49323 -0.40552,0.73983 -0.72992,0.98645c-0.89214,0.36991 -1.86538,-0.12331 -2.59531,-0.86314c-0.56771,-0.49322 -0.97324,-1.35637 -1.13544,-2.34281l-0.1622,-1.60297c-0.08111,-0.49322 -0.40552,-0.61654 -0.81103,-1.47966c-0.48663,-0.98646 -0.97324,-2.71274 -1.62207,-3.45257c-0.24331,-0.24661 -0.48661,-0.36993 -0.81103,-0.49323c0.16221,-0.36991 0.32442,-0.61652 0.48661,-0.98644c0.16221,-0.1233 0.32442,-0.36991 0.48663,-0.36991c0.09124,-0.04625 0.1961,-0.07588 0.3016,-0.08093zm-3.4342,4.6548c0.3049,-0.00515 0.62347,0.09632 0.94282,0.23505l-0.64883,0.61653c0.16221,0.49321 0.56771,1.47967 0.48662,2.0962c-0.0811,1.23304 -1.21654,1.23304 -1.70317,0.49321c-0.56772,-0.98644 -0.56772,-2.46611 0.24331,-3.20594c0.2129,-0.16184 0.44209,-0.23106 0.67924,-0.23505l0.00001,0zm1.56376,0.60497c0.06349,0.00034 0.12554,0.00125 0.18755,0.00385c0.44946,0.03745 0.89874,0.08898 1.34834,0.11946c0.28246,0.00552 0.57079,-0.00085 0.84398,0.1233c0.37054,0.35957 0.61825,0.95573 0.76287,1.57599c0.01947,0.0894 0.03598,0.18124 0.04816,0.27359c-0.45105,0.31059 -0.95436,0.2773 -1.43704,0.25047c-0.29248,-0.01189 -0.58504,0.04361 -0.87693,0.0655c-0.20876,0.01406 -0.41705,0.05739 -0.62602,0.04625c-0.25624,-0.01292 -0.49353,-0.23381 -0.62854,-0.56258c-0.1167,-0.281 -0.22712,-0.57162 -0.29907,-0.88628c-0.05812,-0.28239 -0.06886,-0.67486 0.12418,-0.84387c0.16801,-0.14106 0.36206,-0.16673 0.55252,-0.16569l0,0.00001zm-0.29653,2.83602c0.0811,0.12332 0.1622,0.12332 0.24331,0.24662c0.0811,0.61653 -0.97324,2.09619 -1.13545,0.73983c0.40552,-0.24661 0.64883,-0.49322 0.89214,-0.98644l0,-0.00001z" id="svg_11" stroke="#000"/>
 </g>
</svg>