<svg width="97" height="84" xmlns="http://www.w3.org/2000/svg">
 <!-- Created with Method Draw - http://github.com/duopixel/Method-Draw/ -->

 <g>
  <title>background</title>
  <rect fill="none" id="canvas_background" height="402" width="582" y="-1" x="-1"/>
 </g>
 <g>
  <title>Layer 1</title>
  <g id="svg_1">
   <path fill="#FFC64C" stroke-width="1.5" d="m1.424157,42.087082l20.162929,-41.112362l53.767806,0l20.162923,41.112362l-20.162923,41.112362l-53.767806,0l-20.162929,-41.112362z" id="area-1" stroke="#8C5F00"/>
  </g>
  <path id="svg_4" d="m61.349801,52.69662c0.753879,-0.403339 -0.956741,-0.744554 -1.210753,-1.125452c-0.747661,-0.747851 -0.980588,-1.741894 -1.188887,-2.66511c0.357999,-0.496081 0.212994,-1.008589 0.342707,-1.524176c0.634176,-0.765525 0.985004,-1.663598 1.622337,-2.426374c0.709721,0.121818 1.477157,0.590108 2.188141,0.768036c0.64183,0.938371 -0.53198,1.719764 -0.39397,2.628244c0.269211,0.846993 -0.451995,1.552858 -0.59694,2.342265c0.005051,0.746771 0.840103,1.502733 1.752676,0.989329c-0.046304,-0.544577 -1.348045,-0.713402 -0.765298,-1.479286c0.19175,-0.791852 0.820265,-1.425817 1.295515,-2.091034c-0.268513,-0.779992 0.088844,-1.768695 0.69384,-2.353406c0.614275,0.482593 1.038543,1.331157 1.132535,2.006913c0.011905,0.774644 1.280226,1.293043 1.256105,2.205381c0.094767,0.806596 0.559238,1.574678 1.203384,2.011912c0.336824,0.569336 2.426899,0.272331 1.313724,-0.404048c-0.919238,-0.674648 -1.976876,-1.3901 -2.11646,-2.465222c-0.381341,-0.638201 0.495193,-1.542523 -0.581279,-1.809106c0.066712,-0.864818 -0.214965,-1.846491 0.391047,-2.617873c0.872897,-0.606673 2.151277,-0.651646 2.986087,-1.322795c1.01302,-0.546147 1.588093,-1.440946 1.912139,-2.368208c0.490908,-0.447227 1.253321,-1.413912 2.101488,-0.91136c0.832151,0.418478 0.21799,-0.634237 0.695853,-0.86653c-0.394334,-1.157184 -1.99473,-0.601624 -2.993587,-0.890336c-0.906875,-0.493947 -1.84584,-0.209154 -2.507258,0.355047c-0.495356,0.181527 -0.227369,0.656696 0.258598,0.477949c-0.348574,0.941776 -0.829035,1.978173 -1.885592,2.535882c-1.212256,0.43137 -1.888457,-0.846673 -2.608277,-1.401386c-0.785667,-0.625384 -1.272778,-1.537797 -2.262341,-1.967114c-1.376409,-0.283435 -2.422151,0.699478 -3.461682,1.252904c-1.031665,0.420062 -2.27045,0.627656 -2.974271,1.446981c-1.168034,1.141695 -0.427573,2.86423 -1.655779,3.98694c-0.505889,0.622591 -1.619667,1.070957 -1.466617,1.926632c0.542459,0.916353 0.06705,2.010061 0.363249,2.995994c0.2189,0.712533 0.543016,1.627799 1.604095,1.733615c0.834742,0.430376 1.289385,-0.471133 0.40552,-0.732226c-1.066942,-0.385527 -1.212738,-1.47072 -1.298454,-2.304311c-0.235328,-0.824873 0.56836,-1.370607 0.900274,-2.018057c-0.280289,-0.63243 0.708072,-1.492079 1.334971,-1.364056c-0.468522,0.585341 -1.152585,1.344908 -0.043612,1.827021c-0.014559,0.029581 0.162708,-0.540319 0.448263,-0.711554c-0.042626,-0.446483 -0.599491,-0.826599 -0.008826,-1.278357c1.036275,-0.561935 0.807865,1.068095 0.592702,1.530306c-0.011385,0.709787 -1.181191,1.273522 -0.583876,1.984833c0.654372,0.877299 0.961422,1.884441 1.212522,2.8784c0.360307,0.824519 1.270575,1.427536 2.408836,1.21446l0.18715,-0.001664l0.000001,-0.000003z" stroke-width="null" stroke="#473400" fill="#873f00"/>
  <path id="svg_2" d="m29.195954,53.773543c0.753878,-0.403339 -0.956742,-0.744554 -1.210754,-1.125452c-0.747661,-0.747851 -0.980587,-1.741894 -1.188887,-2.66511c0.357999,-0.496081 0.212994,-1.008589 0.342707,-1.524176c0.634176,-0.765525 0.985004,-1.663598 1.622338,-2.426374c0.709721,0.121818 1.477157,0.590108 2.188141,0.768036c0.64183,0.938371 -0.53198,1.719765 -0.39397,2.628244c0.269211,0.846993 -0.451995,1.552858 -0.59694,2.342266c0.005051,0.74677 0.840103,1.502732 1.752676,0.989328c-0.046304,-0.544577 -1.348045,-0.713401 -0.765298,-1.479286c0.19175,-0.791852 0.820265,-1.425817 1.295515,-2.091034c-0.268513,-0.779992 0.088844,-1.768695 0.69384,-2.353406c0.614275,0.482593 1.038543,1.331157 1.132535,2.006912c0.011905,0.774644 1.280227,1.293044 1.256106,2.205381c0.094767,0.806596 0.559237,1.574678 1.203383,2.011913c0.336824,0.569336 2.426899,0.272331 1.313724,-0.404049c-0.919238,-0.674647 -1.976876,-1.390099 -2.11646,-2.465221c-0.381341,-0.638202 0.495193,-1.542523 -0.581279,-1.809106c0.066712,-0.864818 -0.214965,-1.846491 0.391047,-2.617873c0.872897,-0.606673 2.151277,-0.651645 2.986087,-1.322795c1.01302,-0.546146 1.588093,-1.440946 1.912139,-2.368208c0.490908,-0.447226 1.253321,-1.413911 2.101488,-0.91136c0.832151,0.418479 0.21799,-0.634237 0.695854,-0.866529c-0.394334,-1.157184 -1.99473,-0.601624 -2.993588,-0.890336c-0.906875,-0.493947 -1.845839,-0.209154 -2.507258,0.355047c-0.495356,0.181527 -0.227369,0.656696 0.258598,0.477949c-0.348574,0.941776 -0.829035,1.978173 -1.885592,2.535882c-1.212256,0.43137 -1.888457,-0.846673 -2.608277,-1.401385c-0.785667,-0.625384 -1.272778,-1.537797 -2.262341,-1.967114c-1.376408,-0.283435 -2.422151,0.699478 -3.461682,1.252904c-1.031665,0.420062 -2.27045,0.627656 -2.974271,1.44698c-1.168034,1.141696 -0.427573,2.86423 -1.655779,3.986941c-0.505889,0.62259 -1.619667,1.070957 -1.466616,1.926631c0.542458,0.916354 0.067049,2.010062 0.363249,2.995994c0.2189,0.712533 0.543016,1.627799 1.604095,1.733615c0.834742,0.430376 1.289385,-0.471133 0.40552,-0.732226c-1.066942,-0.385527 -1.212738,-1.47072 -1.298455,-2.304311c-0.235327,-0.824873 0.56836,-1.370607 0.900274,-2.018058c-0.280289,-0.63243 0.708072,-1.492078 1.334971,-1.364056c-0.468522,0.585341 -1.152584,1.344908 -0.043612,1.827021c-0.014558,0.029581 0.162708,-0.540318 0.448264,-0.711553c-0.042626,-0.446483 -0.599491,-0.826599 -0.008826,-1.278357c1.036275,-0.561935 0.807864,1.068096 0.592701,1.530306c-0.011384,0.709787 -1.181191,1.273523 -0.583875,1.984833c0.654372,0.877299 0.961422,1.884441 1.212521,2.8784c0.360307,0.824519 1.270576,1.427537 2.408837,1.21446l0.18715,-0.001664l0.000001,-0.000004z" stroke-width="null" stroke="#473400" fill="#873f00"/>
  <path id="svg_3" d="m43.811339,63.927389c0.753879,-0.403339 -0.956741,-0.744554 -1.210753,-1.125452c-0.747661,-0.747851 -0.980588,-1.741894 -1.188887,-2.66511c0.357999,-0.496081 0.212994,-1.008589 0.342707,-1.524176c0.634176,-0.765525 0.985004,-1.663598 1.622337,-2.426374c0.709721,0.121818 1.477157,0.590108 2.188141,0.768036c0.64183,0.938371 -0.53198,1.719764 -0.39397,2.628244c0.269211,0.846993 -0.451995,1.552858 -0.59694,2.342265c0.005051,0.746771 0.840103,1.502733 1.752676,0.989329c-0.046304,-0.544577 -1.348045,-0.713402 -0.765298,-1.479286c0.19175,-0.791852 0.820265,-1.425817 1.295515,-2.091034c-0.268513,-0.779992 0.088844,-1.768695 0.69384,-2.353406c0.614275,0.482593 1.038543,1.331157 1.132535,2.006913c0.011905,0.774644 1.280226,1.293043 1.256105,2.205381c0.094767,0.806596 0.559238,1.574678 1.203384,2.011912c0.336824,0.569336 2.426899,0.272331 1.313724,-0.404048c-0.919238,-0.674648 -1.976876,-1.3901 -2.11646,-2.465222c-0.381341,-0.638201 0.495193,-1.542523 -0.581279,-1.809106c0.066712,-0.864818 -0.214965,-1.846491 0.391047,-2.617873c0.872897,-0.606673 2.151277,-0.651646 2.986087,-1.322795c1.01302,-0.546147 1.588093,-1.440946 1.912139,-2.368208c0.490908,-0.447227 1.253321,-1.413912 2.101488,-0.91136c0.832151,0.418478 0.21799,-0.634237 0.695853,-0.86653c-0.394334,-1.157184 -1.99473,-0.601624 -2.993587,-0.890336c-0.906875,-0.493947 -1.84584,-0.209154 -2.507258,0.355047c-0.495356,0.181527 -0.227369,0.656696 0.258598,0.477949c-0.348574,0.941776 -0.829035,1.978173 -1.885592,2.535882c-1.212256,0.43137 -1.888457,-0.846673 -2.608277,-1.401386c-0.785667,-0.625384 -1.272778,-1.537797 -2.262341,-1.967114c-1.376409,-0.283435 -2.422151,0.699478 -3.461682,1.252904c-1.031665,0.420062 -2.27045,0.627656 -2.974271,1.446981c-1.168034,1.141695 -0.427573,2.86423 -1.655779,3.98694c-0.505889,0.622591 -1.619667,1.070957 -1.466617,1.926632c0.542459,0.916353 0.06705,2.010061 0.363249,2.995994c0.2189,0.712533 0.543016,1.627799 1.604095,1.733615c0.834742,0.430376 1.289385,-0.471133 0.40552,-0.732226c-1.066942,-0.385527 -1.212738,-1.47072 -1.298454,-2.304311c-0.235328,-0.824873 0.56836,-1.370607 0.900274,-2.018057c-0.280289,-0.63243 0.708072,-1.492079 1.334971,-1.364056c-0.468522,0.585341 -1.152585,1.344908 -0.043612,1.827021c-0.014559,0.029581 0.162708,-0.540319 0.448263,-0.711554c-0.042626,-0.446483 -0.599491,-0.826599 -0.008826,-1.278357c1.036275,-0.561935 0.807865,1.068095 0.592702,1.530306c-0.011385,0.709787 -1.181191,1.273522 -0.583876,1.984833c0.654372,0.877299 0.961422,1.884441 1.212522,2.8784c0.360307,0.824519 1.270575,1.427536 2.408836,1.21446l0.18715,-0.001664l0.000001,-0.000003z" stroke-width="null" stroke="#473400" fill="#873f00"/>
  <path fill-opacity="0" id="svg_10" d="m16.115385,25.461538c10.153846,-8 21.076923,5.384615 25.423076,-0.846154c5.653847,-5.76923 17.961539,7 21.846154,1.538461c6.576924,-5.307692 10.423078,5.769232 20.307693,1.384617" opacity="0.84" stroke-width="null" stroke="#473400" fill="#ff7d0c"/>
  <path fill-opacity="0" id="svg_11" d="m16.269231,30.538461c10.153846,-8 21.076923,5.384615 25.423076,-0.846154c5.653847,-5.76923 17.961539,7 21.846154,1.538461c6.576924,-5.307692 10.423078,5.769232 20.307693,1.384617" opacity="0.84" stroke-width="null" stroke="#473400" fill="#ff7d0c"/>
  <path fill-opacity="0" id="svg_12" d="m16.70362,20.16742c10.153846,-8 21.076923,5.384615 25.423076,-0.846154c5.653847,-5.76923 17.961539,7 21.846154,1.538461c6.576924,-5.307692 10.423078,5.769232 20.307693,1.384617" opacity="0.84" stroke-width="null" stroke="#473400" fill="#ff7d0c"/>
 </g>
</svg>