<svg width="97" height="84" xmlns="http://www.w3.org/2000/svg">
 <!-- Created with Method Draw - http://github.com/duopixel/Method-Draw/ -->

 <g>
  <title>background</title>
  <rect fill="none" id="canvas_background" height="402" width="582" y="-1" x="-1"/>
 </g>
 <g>
  <title>Layer 1</title>
  <g id="svg_1">
   <path fill="#FFC64C" stroke-width="1.5" d="m1.424157,42.087082l20.162929,-41.112362l53.767806,0l20.162923,41.112362l-20.162923,41.112362l-53.767806,0l-20.162929,-41.112362z" id="area-1" stroke="#8C5F00"/>
  </g>
  <path stroke="#444444" id="svg_18" d="m50.514159,40.981054c1.258566,-5.868639 5.263096,-23.3617 10.640606,-21.330248c5.37751,2.031452 3.089207,7.900092 8.695548,4.740055c5.606341,-3.160036 9.61087,14.220165 10.869436,17.041627c3.203623,4.40148 -31.464156,5.417206 -30.20559,-0.451434z" stroke-width="null" fill="#876d57"/>
  <path stroke="#444444" id="svg_20" d="m45.202152,39.704458c-1.139425,-5.86864 -4.764868,-23.3617 -9.63332,-21.330248c-4.868451,2.031452 -2.796769,7.900092 -7.872389,4.740055c-5.07562,-3.160037 -8.701062,14.220165 -9.840487,17.041627c-2.900354,4.401479 28.48562,5.417205 27.346195,-0.451434z" stroke-width="null" fill="#60574f"/>
  <path stroke="#444444" id="svg_21" d="m41.001784,25.480477c0.153764,1.758876 -5.156941,3.798369 -7.33555,2.168383c-2.17861,-1.629986 -13.883797,5.86127 -12.115518,0.661114c1.768279,-5.200156 1.613442,-5.37407 3.161149,-7.64851c1.547708,-2.27444 3.173375,-3.061358 4.931579,-4.397156c1.758203,-1.335798 2.279942,1.245755 4.466572,1.441856c2.186629,0.1961 2.39567,-0.274942 3.957359,1.127707c1.561689,1.402648 0.693311,0.7429 1.35257,2.088822c0.65926,1.345923 1.428076,2.798908 1.581839,4.557784z" stroke-width="null" fill="#b5b5b5"/>
  <path stroke="#444444" id="svg_13" d="m26.845708,57.544168c1.991448,-9.384116 8.327877,-37.356002 16.836794,-34.107654c8.508917,3.248348 4.8881,12.632465 13.759099,7.579479c8.870998,-5.052986 15.207427,22.738436 17.198875,27.25003c5.069142,7.038087 -49.786215,8.662262 -47.794767,-0.721854z" stroke-width="null" fill="#93867a"/>
  <path id="svg_17" d="m32.968087,35.97163c-0.283688,3.262412 0.851064,9.787235 19.148937,5.957447c18.297873,-3.829787 20.000001,8.936172 16.737589,-0.709219c-3.262412,-9.645391 -6.666667,-9.645391 -9.361703,-10.638299c-2.695035,-0.992908 -1.843972,1.41844 -5.248227,1.843972c-3.404255,0.425532 -3.404255,-1.560284 -5.673759,-5.390071c-2.269504,-3.829787 -2.815608,-3.574466 -6.017733,-4.198581c-3.202125,-0.624114 -5.450356,2.184398 -6.666666,4.680851c-1.216311,2.496453 -2.63475,5.191489 -2.918438,8.4539z" stroke-width="null" stroke="#444444" fill="#daeaea"/>
  <path stroke="#444444" id="svg_28" d="m54.747781,26.002216c-0.169006,1.758876 5.320298,4.841847 8.062688,2.168383c2.74239,-2.673464 15.260031,5.86127 13.316471,0.661114c-1.94356,-5.200156 -1.773373,-3.461027 -3.648411,-5.735467c-1.875038,-2.27444 -3.574894,-0.887445 -5.50738,-2.223243c-1.932485,-1.335798 -2.940725,-1.797722 -4.648452,-2.6451c-1.707727,-0.847378 -1.328794,-2.53581 -2.349633,-1.133162c-1.02084,1.402648 -2.762036,3.003769 -3.486644,4.349691c-0.724609,1.345923 -1.569634,2.798908 -1.738639,4.557784z" stroke-width="null" fill="#b5b5b5"/>
 </g>
</svg>