<svg width="97" height="84.00000000000001" xmlns="http://www.w3.org/2000/svg">
 <!-- Created with Method Draw - http://github.com/duopixel/Method-Draw/ -->

 <g>
  <title>background</title>
  <rect fill="none" id="canvas_background" height="402" width="582" y="-1" x="-1"/>
 </g>
 <g>
  <title>Layer 1</title>
  <g id="svg_1">
   <path fill="#FFC64C" stroke-width="1.5" d="m1.42416,42.08708l20.16293,-41.11236l53.7678,0l20.16293,41.11236l-20.16293,41.11236l-53.7678,0l-20.16293,-41.11236z" id="area-1" stroke="#8C5F00"/>
  </g>
  <path id="svg_6" d="m48.388969,24.751093c-0.54851,0.2438 -1.04903,0.56882 -1.55355,0.85852c-0.17193,0.09865 -0.36726,0.25545 -0.52661,0.30339c-0.40605,0.12172 -1.04142,-0.09119 -1.55904,-0.11342c-1.29373,-0.05515 -2.13133,0.05923 -3.19485,0.25197c-0.49772,0.08999 -1.01304,0.17434 -1.44988,0.32826c-0.37317,0.13157 -0.80101,0.4256 -1.21856,0.67288c-0.65987,0.39087 -1.10931,0.75891 -1.62382,1.23016c-0.85999,0.78715 -1.4014,1.77808 -2.03067,2.86682c-0.2748,0.47522 -0.67056,1.1833 -0.69026,1.74563c-0.36376,0.66266 -0.91647,1.06723 -1.05512,2.03726c0.19383,0.56725 0.69615,0.06284 0.99885,-0.12605c0.25031,-0.15668 0.51961,-0.34389 0.74143,-0.41898c1.15289,-0.39063 2.75951,0.16773 3.88201,-0.19021c0.39785,-0.12677 0.74253,-0.3827 1.13779,-0.49108c0.37536,-0.10322 0.66246,0.07954 0.93006,0.21844c0.14215,0.07402 0.2919,0.17423 0.42105,0.25389c0.8363,0.51944 1.6722,1.07012 2.795,1.27751c0.90118,0.16617 1.6841,-0.15092 2.41663,-0.32226c0.18594,-0.04362 0.42615,-0.02776 0.5672,-0.21857c-0.58469,-0.15872 -1.06992,-0.42944 -1.6805,-0.71841c-0.80201,-0.37922 -1.42499,-0.63575 -1.72808,-1.39706c0.35897,-0.11295 0.77472,-0.0292 1.14839,0.0495c0.40805,0.08555 0.81301,0.16594 1.20457,0.24332c1.65331,0.32718 2.89846,0.87642 4.15701,1.58895c0.61138,0.34569 1.17478,0.8274 1.69299,1.23172c1.06132,0.82908 1.96729,1.85858 2.82179,2.98013c0.38676,0.50778 0.73223,1.14365 1.15168,1.74971c0.18334,0.26495 0.36767,0.56053 0.5636,0.88772c0.18723,0.31085 0.47293,0.69186 0.51252,0.96378c0.04458,0.30027 -0.08807,0.6295 -0.15485,0.95764c-0.11546,0.57003 -0.20062,1.1815 -0.16194,1.76679c0.05058,0.75698 0.19133,1.49426 0.48643,2.06777c0.12805,-0.13686 0.18033,-0.37777 0.24631,-0.59838c0.32348,-0.49697 0.75383,-0.99333 0.76452,-1.82037c0.88359,0.54887 2.59987,0.50285 3.6303,0.48856c0.30979,-0.00433 0.62538,0.03508 0.88199,-0.10971c-0.54121,-0.37705 -0.93847,-0.85419 -1.4089,-1.34131c-0.71174,-0.73595 -1.30043,-1.35596 -2.34966,-1.74971c-0.34007,-0.12761 -0.72943,-0.1967 -0.91577,-0.43317c-0.14325,-0.18095 -0.18683,-0.5818 -0.2595,-0.96786c-0.19543,-1.0438 -0.44954,-2.15128 -0.67626,-3.02975c-0.68036,-2.64056 -1.71879,-4.98733 -3.10039,-6.80987c-0.70015,-0.92424 -1.53625,-1.6769 -2.43772,-2.51379c-0.15405,-0.2903 -0.44265,-0.68189 -0.50222,-1.12455c-0.06098,-0.45575 0.04898,-0.85575 0.28329,-1.16191c0.51262,-0.44963 1.31803,-0.49937 1.66631,-1.17237c-0.45534,-0.39399 -1.02034,-0.50946 -1.57474,-0.57387c-1.19767,-0.13926 -2.31977,-0.03112 -3.24883,0.38234z" stroke-width="0.5" stroke="#000" fill="#a59a9a"/>
  <path id="svg_5" d="m57.688332,28.450171c-0.54851,0.2438 -1.04903,0.56882 -1.55355,0.85852c-0.17193,0.09865 -0.36726,0.25545 -0.52661,0.30339c-0.40605,0.12172 -1.04142,-0.09119 -1.55904,-0.11342c-1.29373,-0.05515 -2.13133,0.05923 -3.19485,0.25197c-0.49772,0.08999 -1.01304,0.17434 -1.44988,0.32826c-0.37317,0.13157 -0.80101,0.4256 -1.21856,0.67288c-0.65987,0.39087 -1.10931,0.75891 -1.62382,1.23016c-0.85999,0.78715 -1.4014,1.77808 -2.03067,2.86682c-0.2748,0.47522 -0.67056,1.1833 -0.69026,1.74563c-0.36376,0.66266 -0.91647,1.06723 -1.05512,2.03726c0.19383,0.56725 0.69615,0.06284 0.99885,-0.12605c0.25031,-0.15668 0.51961,-0.34389 0.74143,-0.41898c1.15289,-0.39063 2.75951,0.16773 3.88201,-0.19021c0.39785,-0.12677 0.74253,-0.3827 1.13779,-0.49108c0.37536,-0.10322 0.66246,0.07954 0.93006,0.21844c0.14215,0.07402 0.2919,0.17423 0.42105,0.25389c0.8363,0.51944 1.6722,1.07012 2.795,1.27751c0.90118,0.16617 1.6841,-0.15092 2.41663,-0.32226c0.18594,-0.04362 0.42615,-0.02776 0.5672,-0.21857c-0.58469,-0.15872 -1.06992,-0.42944 -1.6805,-0.71841c-0.80201,-0.37922 -1.42499,-0.63575 -1.72808,-1.39706c0.35897,-0.11295 0.77472,-0.0292 1.14839,0.0495c0.40805,0.08555 0.81301,0.16594 1.20457,0.24332c1.65331,0.32718 2.89846,0.87642 4.15701,1.58895c0.61138,0.34569 1.17478,0.8274 1.69299,1.23172c1.06132,0.82908 1.96729,1.85858 2.82179,2.98013c0.38676,0.50778 0.73223,1.14365 1.15168,1.74971c0.18334,0.26495 0.36767,0.56053 0.5636,0.88772c0.18723,0.31085 0.47293,0.69186 0.51252,0.96378c0.04458,0.30027 -0.08807,0.6295 -0.15485,0.95764c-0.11546,0.57003 -0.20062,1.1815 -0.16194,1.76679c0.05058,0.75698 0.19133,1.49426 0.48643,2.06777c0.12805,-0.13686 0.18033,-0.37777 0.24631,-0.59838c0.32348,-0.49697 0.75383,-0.99333 0.76452,-1.82037c0.88359,0.54887 2.59987,0.50285 3.6303,0.48856c0.30979,-0.00433 0.62538,0.03508 0.88199,-0.10971c-0.54121,-0.37705 -0.93847,-0.85419 -1.4089,-1.34131c-0.71174,-0.73595 -1.30043,-1.35596 -2.34966,-1.74971c-0.34007,-0.12761 -0.72943,-0.1967 -0.91577,-0.43317c-0.14325,-0.18095 -0.18683,-0.5818 -0.2595,-0.96786c-0.19543,-1.0438 -0.44954,-2.15128 -0.67626,-3.02975c-0.68036,-2.64056 -1.71879,-4.98733 -3.10039,-6.80987c-0.70015,-0.92424 -1.53625,-1.6769 -2.43772,-2.51379c-0.15405,-0.2903 -0.44265,-0.68189 -0.50222,-1.12455c-0.06098,-0.45575 0.04898,-0.85575 0.28329,-1.16191c0.51262,-0.44963 1.31803,-0.49937 1.66631,-1.17237c-0.45534,-0.39399 -1.02034,-0.50946 -1.57474,-0.57387c-1.19767,-0.13926 -2.31977,-0.03112 -3.24883,0.38234z" stroke-width="0.5" stroke="#000" fill="#757575"/>
  <path id="svg_2" d="m38.45267,30.865745c-0.54851,0.2438 -1.04903,0.56882 -1.55355,0.85852c-0.17193,0.09865 -0.36726,0.25545 -0.52661,0.30339c-0.40605,0.12172 -1.04142,-0.09119 -1.55904,-0.11342c-1.29373,-0.05515 -2.13133,0.05923 -3.19485,0.25197c-0.49772,0.08999 -1.01304,0.17434 -1.44988,0.32826c-0.37317,0.13157 -0.80101,0.4256 -1.21856,0.67288c-0.65987,0.39087 -1.10931,0.75891 -1.62382,1.23016c-0.85999,0.78715 -1.4014,1.77808 -2.03067,2.86682c-0.2748,0.47522 -0.67056,1.1833 -0.69026,1.74563c-0.36376,0.66266 -0.91647,1.06723 -1.05512,2.03726c0.19383,0.56725 0.69615,0.06284 0.99885,-0.12605c0.25031,-0.15668 0.51961,-0.34389 0.74143,-0.41898c1.15289,-0.39063 2.75951,0.16773 3.88201,-0.19021c0.39785,-0.12677 0.74253,-0.3827 1.13779,-0.49108c0.37536,-0.10322 0.66246,0.07954 0.93006,0.21844c0.14215,0.07402 0.2919,0.17423 0.42105,0.25389c0.8363,0.51944 1.6722,1.07012 2.795,1.27751c0.90118,0.16617 1.6841,-0.15092 2.41663,-0.32226c0.18594,-0.04362 0.42615,-0.02776 0.5672,-0.21857c-0.58469,-0.15872 -1.06992,-0.42944 -1.6805,-0.71841c-0.80201,-0.37922 -1.42499,-0.63575 -1.72808,-1.39706c0.35897,-0.11295 0.77472,-0.0292 1.14839,0.0495c0.40805,0.08555 0.81301,0.16594 1.20457,0.24332c1.65331,0.32718 2.89846,0.87642 4.15701,1.58895c0.61138,0.34569 1.17478,0.8274 1.69299,1.23172c1.06132,0.82908 1.96729,1.85858 2.82179,2.98013c0.38676,0.50778 0.73223,1.14365 1.15168,1.74971c0.18334,0.26495 0.36767,0.56053 0.5636,0.88772c0.18723,0.31085 0.47293,0.69186 0.51252,0.96378c0.04458,0.30027 -0.08807,0.6295 -0.15485,0.95764c-0.11546,0.57003 -0.20062,1.1815 -0.16194,1.76679c0.05058,0.75698 0.19133,1.49426 0.48643,2.06777c0.12805,-0.13686 0.18033,-0.37777 0.24631,-0.59838c0.32348,-0.49697 0.75383,-0.99333 0.76452,-1.82037c0.88359,0.54887 2.59987,0.50285 3.6303,0.48856c0.30979,-0.00433 0.62538,0.03508 0.88199,-0.10971c-0.54121,-0.37705 -0.93847,-0.85419 -1.4089,-1.34131c-0.71174,-0.73595 -1.30043,-1.35596 -2.34966,-1.74971c-0.34007,-0.12761 -0.72943,-0.1967 -0.91577,-0.43317c-0.14325,-0.18095 -0.18683,-0.5818 -0.2595,-0.96786c-0.19543,-1.0438 -0.44954,-2.15128 -0.67626,-3.02975c-0.68036,-2.64056 -1.71879,-4.98733 -3.10039,-6.80987c-0.70015,-0.92424 -1.53625,-1.6769 -2.43772,-2.51379c-0.15405,-0.2903 -0.44265,-0.68189 -0.50222,-1.12455c-0.06098,-0.45575 0.04898,-0.85575 0.28329,-1.16191c0.51262,-0.44963 1.31803,-0.49937 1.66631,-1.17237c-0.45534,-0.39399 -1.02034,-0.50946 -1.57474,-0.57387c-1.19767,-0.13926 -2.31977,-0.03112 -3.24883,0.38234z" stroke-width="0.5" stroke="#000" fill="#b8bcbc"/>
  <path d="m43.367209,55.050094c-0.127388,0.127388 -0.254776,0.254776 -0.254776,0.382164c0,0.127388 -0.127388,0.254776 -0.25478,0.382168c-0.127388,0.127388 -0.185833,0.343113 -0.254776,0.509552c-0.0975,0.235382 0,0.382164 0,0.509556c0,0.127388 0,0.254776 0,0.509552c0,0.127388 -0.0975,0.27417 0,0.509556c0.068943,0.166439 0.137085,0.206028 0.254776,0.254776c0.166443,0.068943 0.137089,0.333416 0.25478,0.382164c0.166439,0.068943 0.254776,0.25478 0.382164,0.25478c0.127388,0 0.264473,0.07864 0.382164,0.127388c0.166443,0.068943 0.215729,0.185833 0.382168,0.254776c0.117691,0.048748 0.420216,-0.133942 0.63694,0c0.24231,0.149754 0.25478,0.254776 0.382168,0.254776c0.254776,0 0.382164,0 0.509552,0c0.127388,0 0.25478,0 0.382168,0c0.127388,0 0.254776,0 0.382164,0c0.127388,0 0.254776,0 0.382168,0c0.127388,0 0.254776,0 0.382164,0c0.127388,0 0.382164,0 0.509552,0c0.25478,0 0.382168,0 0.636944,0c0.127388,0 0.382164,0 0.509556,0c0.127388,0 0.382164,0 0.63694,0c0.127388,0 0.264477,0.048748 0.382168,0c0.166439,-0.068943 0.254776,-0.127388 0.382164,-0.127388c0.127388,0 0.419476,-0.037308 0.509556,-0.127388c0.090076,-0.090076 0.292088,-0.037312 0.382164,-0.127388c0.090076,-0.090076 0.264473,-0.07864 0.382164,-0.127388c0.166439,-0.068943 0.292091,-0.037312 0.382168,-0.127388c0.09008,-0.09008 0.127388,-0.127392 0.382164,-0.127392c0.127388,0 0.215725,-0.185833 0.382164,-0.254776c0.117695,-0.048752 0.264477,-0.07864 0.382168,-0.127388c0.166439,-0.068943 0.254776,-0.127388 0.382164,-0.254776c0.127388,-0.127388 0.264477,-0.206024 0.382168,-0.254776c0.166443,-0.068943 0.264473,-0.078644 0.382164,-0.127392c0.166439,-0.068943 0.137085,-0.206028 0.254776,-0.254776c0.166439,-0.068943 0.343117,-0.313221 0.509556,-0.382164c0.117691,-0.048748 0.1647,-0.037312 0.254776,-0.127388c0.090076,-0.090076 0.254776,-0.127392 0.382164,-0.25478c0.127392,-0.127388 0.127392,-0.254776 0.25478,-0.382164c0.127388,-0.127388 0.254776,-0.127388 0.254776,-0.254776c0,-0.127388 0.185833,-0.215729 0.254776,-0.382168c0.048748,-0.117691 0.078636,-0.137085 0.127388,-0.254776c0.068943,-0.166443 0.164703,-0.1647 0.25478,-0.254776c0.090076,-0.090076 -0.09008,-0.292088 0,-0.382168c0.090076,-0.090076 0.254776,-0.127388 0.382164,-0.254776l0,-0.127388l0.127388,0" id="svg_7" stroke-opacity="null" stroke-width="0.5" stroke="#000" fill="none"/>
  <path d="m45.914977,54.795318c-0.127388,0 -0.254776,0 -0.382164,0c-0.127388,0 -0.1647,0.037312 -0.254776,0.127388c-0.090076,0.090076 -0.1647,0.037312 -0.254776,0.127388c-0.090076,0.090076 -0.037312,0.164696 -0.127392,0.254776c-0.090076,0.090076 0,0.254776 0,0.382164c0,0.127392 0,0.25478 0,0.382168c0,0.127388 -0.0975,0.27417 0,0.509552c0.068943,0.166443 0.264477,0.206032 0.382168,0.25478c0.166439,0.068943 0.343113,0.185833 0.509552,0.254776c0.117691,0.048748 0.382168,0.127388 0.509556,0.127388c0.127388,0 0.254776,0 0.382164,0c0.127388,0 0.25478,0 0.382168,0c0.127388,0 0.254776,0 0.509552,0c0.127388,0 0.382168,0 0.509556,0c0.127388,0 0.254776,0 0.382164,0c0.127388,0 0.254776,0 0.382164,0c0.127392,0 0.25478,0 0.382168,0c0.127388,0 0.254776,0 0.382164,0c0.25478,0 0.25478,-0.127388 0.382168,-0.127388c0.254776,0 0.512959,-0.098122 0.63694,-0.127388c0.277233,-0.065445 0.274174,-0.15728 0.509556,-0.25478c0.166439,-0.068943 0.313221,-0.215725 0.382164,-0.382164c0.048748,-0.117691 0.359798,-0.012466 0.509556,-0.254776c0.066971,-0.108364 0.037312,-0.1647 0.127388,-0.254776c0.180153,-0.180153 0.382164,0 0.509552,-0.127392c0.127388,-0.127388 0.264477,-0.206028 0.382168,-0.254776c0.166439,-0.068943 0.137085,-0.206028 0.254776,-0.254776c0.166439,-0.068943 0.254776,-0.127388 0.382164,-0.254776l0.127392,-0.127388" id="svg_8" stroke-opacity="null" stroke-width="0.5" stroke="#000" fill="none"/>
  <path d="m54.665511,50.846277c-0.12739,0.12739 -0.25478,0.25477 -0.25478,0.38216c0,0.12739 -0.12739,0.25478 -0.25478,0.38217c-0.12739,0.12739 -0.18583,0.34311 -0.25478,0.50955c-0.0975,0.23538 0,0.38217 0,0.50956c0,0.12739 0,0.25477 0,0.50955c0,0.12739 -0.0975,0.27417 0,0.50955c0.06895,0.16644 0.13709,0.20603 0.25478,0.25478c0.16644,0.06894 0.13709,0.33342 0.25478,0.38216c0.16644,0.06895 0.25478,0.25478 0.38216,0.25478c0.12739,0 0.26448,0.07864 0.38217,0.12739c0.16644,0.06895 0.21573,0.18584 0.38217,0.25478c0.11769,0.04875 0.42021,-0.13394 0.63694,0c0.24231,0.14975 0.25478,0.25477 0.38216,0.25477c0.25478,0 0.38217,0 0.50956,0c0.12738,0 0.25478,0 0.38216,0c0.12739,0 0.25478,0 0.38217,0c0.12739,0 0.25477,0 0.38217,0c0.12738,0 0.25477,0 0.38216,0c0.12739,0 0.38216,0 0.50955,0c0.25478,0 0.38217,0 0.63695,0c0.12738,0 0.38216,0 0.50955,0c0.12739,0 0.38217,0 0.63694,0c0.12739,0 0.26448,0.04875 0.38217,0c0.16644,-0.06894 0.25478,-0.12738 0.38216,-0.12738c0.12739,0 0.41948,-0.03731 0.50956,-0.12739c0.09008,-0.09008 0.29209,-0.03731 0.38216,-0.12739c0.09008,-0.09008 0.26448,-0.07864 0.38217,-0.12739c0.16644,-0.06894 0.29209,-0.03731 0.38216,-0.12739c0.09009,-0.09008 0.12739,-0.12739 0.38217,-0.12739c0.12739,0 0.21572,-0.18583 0.38216,-0.25477c0.1177,-0.04875 0.26448,-0.07864 0.38217,-0.12739c0.16644,-0.06894 0.25478,-0.12739 0.38216,-0.25478c0.12739,-0.12739 0.26448,-0.20602 0.38217,-0.25477c0.16645,-0.06895 0.26448,-0.07865 0.38217,-0.12739c0.16644,-0.06895 0.13708,-0.20603 0.25477,-0.25478c0.16644,-0.06894 0.34312,-0.31322 0.50956,-0.38216c0.11769,-0.04875 0.1647,-0.03732 0.25477,-0.12739c0.09008,-0.09008 0.25478,-0.12739 0.38217,-0.25478c0.12739,-0.12739 0.12739,-0.25478 0.25478,-0.38217c0.12739,-0.12738 0.25477,-0.12738 0.25477,-0.25477c0,-0.12739 0.18584,-0.21573 0.25478,-0.38217c0.04875,-0.11769 0.07864,-0.13709 0.12739,-0.25478c0.06894,-0.16644 0.1647,-0.1647 0.25478,-0.25477c0.09007,-0.09008 -0.09008,-0.29209 0,-0.38217c0.09007,-0.09008 0.25477,-0.12739 0.38216,-0.25478l0,-0.12738l0.12739,0" id="svg_16" stroke-opacity="null" stroke-width="0.5" stroke="#000" fill="none"/>
  <path d="m57.379937,50.591497c-0.12738,0 -0.25477,0 -0.38216,0c-0.12739,0 -0.1647,0.03731 -0.25478,0.12739c-0.09007,0.09008 -0.1647,0.03731 -0.25477,0.12739c-0.09008,0.09007 -0.03731,0.16469 -0.12739,0.25477c-0.09008,0.09008 0,0.25478 0,0.38217c0,0.12739 0,0.25478 0,0.38217c0,0.12738 -0.0975,0.27417 0,0.50955c0.06894,0.16644 0.26447,0.20603 0.38216,0.25478c0.16644,0.06894 0.34312,0.18583 0.50956,0.25477c0.11769,0.04875 0.38216,0.12739 0.50955,0.12739c0.12739,0 0.25478,0 0.38217,0c0.12738,0 0.25478,0 0.38216,0c0.12739,0 0.25478,0 0.50956,0c0.12738,0 0.38216,0 0.50955,0c0.12739,0 0.25478,0 0.38217,0c0.12738,0 0.25477,0 0.38216,0c0.12739,0 0.25478,0 0.38217,0c0.12739,0 0.25477,0 0.38216,0c0.25478,0 0.25478,-0.12739 0.38217,-0.12739c0.25478,0 0.51296,-0.09812 0.63694,-0.12738c0.27723,-0.06545 0.27417,-0.15728 0.50956,-0.25478c0.16643,-0.06895 0.31322,-0.21573 0.38216,-0.38217c0.04875,-0.11769 0.3598,-0.01247 0.50955,-0.25477c0.06698,-0.10837 0.03732,-0.1647 0.12739,-0.25478c0.18016,-0.18015 0.38217,0 0.50955,-0.12739c0.12739,-0.12739 0.26448,-0.20603 0.38217,-0.25478c0.16644,-0.06894 0.13709,-0.20603 0.25478,-0.25477c0.16644,-0.06895 0.25477,-0.12739 0.38216,-0.25478l0.12739,-0.12739" id="svg_17" stroke-opacity="null" stroke-width="0.5" stroke="#000" fill="none"/>
  <path d="m63.670816,53.521435c-0.12739,0.12739 -0.25478,0.25477 -0.25478,0.38216c0,0.12739 -0.12739,0.25478 -0.25478,0.38217c-0.12739,0.12739 -0.18583,0.34311 -0.25478,0.50955c-0.0975,0.23538 0,0.38217 0,0.50956c0,0.12739 0,0.25477 0,0.50955c0,0.12739 -0.0975,0.27417 0,0.50955c0.06895,0.16644 0.13709,0.20603 0.25478,0.25478c0.16644,0.06894 0.13709,0.33342 0.25478,0.38216c0.16644,0.06895 0.25478,0.25478 0.38216,0.25478c0.12739,0 0.26448,0.07864 0.38217,0.12739c0.16644,0.06895 0.21573,0.18584 0.38217,0.25478c0.11769,0.04875 0.42021,-0.13394 0.63694,0c0.24231,0.14975 0.25478,0.25477 0.38216,0.25477c0.25478,0 0.38217,0 0.50956,0c0.12738,0 0.25478,0 0.38216,0c0.12739,0 0.25478,0 0.38217,0c0.12739,0 0.25477,0 0.38217,0c0.12738,0 0.25477,0 0.38216,0c0.12739,0 0.38216,0 0.50955,0c0.25478,0 0.38217,0 0.63695,0c0.12738,0 0.38216,0 0.50955,0c0.12739,0 0.38217,0 0.63694,0c0.12739,0 0.26448,0.04875 0.38217,0c0.16644,-0.06894 0.25478,-0.12738 0.38216,-0.12738c0.12739,0 0.41948,-0.03731 0.50956,-0.12739c0.09008,-0.09008 0.29209,-0.03731 0.38216,-0.12739c0.09008,-0.09008 0.26448,-0.07864 0.38217,-0.12739c0.16644,-0.06894 0.29209,-0.03731 0.38216,-0.12739c0.09009,-0.09008 0.12739,-0.12739 0.38217,-0.12739c0.12739,0 0.21572,-0.18583 0.38216,-0.25477c0.1177,-0.04875 0.26448,-0.07864 0.38217,-0.12739c0.16644,-0.06894 0.25478,-0.12739 0.38216,-0.25478c0.12739,-0.12739 0.26448,-0.20602 0.38217,-0.25477c0.16645,-0.06895 0.26448,-0.07865 0.38217,-0.12739c0.16644,-0.06895 0.13708,-0.20603 0.25477,-0.25478c0.16644,-0.06894 0.34312,-0.31322 0.50956,-0.38216c0.11769,-0.04875 0.1647,-0.03732 0.25477,-0.12739c0.09008,-0.09008 0.25478,-0.12739 0.38217,-0.25478c0.12739,-0.12739 0.12739,-0.25478 0.25478,-0.38217c0.12739,-0.12738 0.25477,-0.12738 0.25477,-0.25477c0,-0.12739 0.18584,-0.21573 0.25478,-0.38217c0.04875,-0.11769 0.07864,-0.13709 0.12739,-0.25478c0.06894,-0.16644 0.1647,-0.1647 0.25478,-0.25477c0.09007,-0.09008 -0.09008,-0.29209 0,-0.38217c0.09007,-0.09008 0.25477,-0.12739 0.38216,-0.25478l0,-0.12738l0.12739,0" id="svg_14" stroke-opacity="null" stroke-width="0.5" stroke="#000" fill="none"/>
  <path d="m66.385242,53.266655c-0.12738,0 -0.25477,0 -0.38216,0c-0.12739,0 -0.1647,0.03731 -0.25478,0.12739c-0.09007,0.09008 -0.1647,0.03731 -0.25477,0.12739c-0.09008,0.09007 -0.03731,0.16469 -0.12739,0.25477c-0.09008,0.09008 0,0.25478 0,0.38217c0,0.12739 0,0.25478 0,0.38217c0,0.12738 -0.0975,0.27417 0,0.50955c0.06894,0.16644 0.26447,0.20603 0.38216,0.25478c0.16644,0.06894 0.34312,0.18583 0.50956,0.25477c0.11769,0.04875 0.38216,0.12739 0.50955,0.12739c0.12739,0 0.25478,0 0.38217,0c0.12738,0 0.25478,0 0.38216,0c0.12739,0 0.25478,0 0.50956,0c0.12738,0 0.38216,0 0.50955,0c0.12739,0 0.25478,0 0.38217,0c0.12738,0 0.25477,0 0.38216,0c0.12739,0 0.25478,0 0.38217,0c0.12739,0 0.25477,0 0.38216,0c0.25478,0 0.25478,-0.12739 0.38217,-0.12739c0.25478,0 0.51296,-0.09812 0.63694,-0.12738c0.27723,-0.06545 0.27417,-0.15728 0.50956,-0.25478c0.16643,-0.06895 0.31322,-0.21573 0.38216,-0.38217c0.04875,-0.11769 0.3598,-0.01247 0.50955,-0.25477c0.06698,-0.10837 0.03732,-0.1647 0.12739,-0.25478c0.18016,-0.18015 0.38217,0 0.50955,-0.12739c0.12739,-0.12739 0.26448,-0.20603 0.38217,-0.25478c0.16644,-0.06894 0.13709,-0.20603 0.25478,-0.25477c0.16644,-0.06895 0.25477,-0.12739 0.38216,-0.25478l0.12739,-0.12739" id="svg_15" stroke-opacity="null" stroke-width="0.5" stroke="#000" fill="none"/>
 </g>
</svg>