<svg width="97" height="84" xmlns="http://www.w3.org/2000/svg">
 <!-- Created with Method Draw - http://github.com/duopixel/Method-Draw/ -->

 <g>
  <title>background</title>
  <rect x="-1" y="-1" width="14.125" height="12.5" id="canvas_background" fill="none"/>
 </g>
 <g>
  <title>Layer 1</title>
  <g id="svg_1">
   <path stroke="#8C5F00" id="area-1" d="m1.42416,42.08708l20.16293,-41.11236l53.7678,0l20.16293,41.11236l-20.16293,41.11236l-53.7678,0l-20.16293,-41.11236z" stroke-width="1.5" fill="#FFC64C"/>
  </g>
  <path fill="#009494" stroke="#009494" stroke-width="0" d="m50,1c-5.55263,29.17104 -18.07895,41.32894 -23.47368,33.30264c-5.39474,-8.02631 1.18421,-18.42106 -12.71052,-16.80264" id="path_1" class="user_path" fill-opacity="0"/>
  <path fill="#009494" stroke="#009494" stroke-width="0" d="m49.46052,1.47368c16.81579,2.09209 21.44738,64.01317 -9.07894,46.64475c-30.52632,-17.36841 -18.28948,6.05262 -29.02632,15.17104" id="path_2" class="user_path" fill-opacity="0"/>
  <path fill="#009494" stroke="#009494" stroke-width="0" d="m49.46052,1.47368c-24.36842,21.69735 -25.39472,53.2237 4.47369,57.17107c29.86842,3.94736 6.18421,14.99998 -4.55263,24.1184" id="path_3" class="user_path" fill-opacity="0"/>
  <path fill="#009494" stroke="#009494" stroke-width="0" d="m49.46052,1.47368c16.68421,1.82893 23.94738,7.30265 20.39474,24.53949c-3.55264,17.23685 -4.3421,19.34209 16.89474,33.19735" id="path_4" class="user_path" fill-opacity="0"/>
  <path fill="#009494" stroke="#009494" stroke-width="0" d="m49.46052,1.3421c16.68421,1.82893 -13.15788,37.43423 -3.81579,35.85528c9.3421,-1.57895 18.1579,-30.78949 39.39474,-16.93423" id="path_5" class="user_path" fill-opacity="0"/>
  <path id="svg_2" d="m17.938966,43.937408c1.74992,-1.74992 21.49897,-12.4994 23.87385,-12.12442c2.37489,0.37498 11.62445,0.87496 14.7493,-0.87496c3.12485,-1.74991 5.49973,-10.74948 5.37474,-14.4993c-0.12499,-3.74982 3.99981,-4.62478 6.37469,-3.12485c2.37489,1.49993 5.87472,2.74987 7.62464,9.12456c1.74991,6.37469 -1.74992,29.37359 -3.62483,30.74852c-1.87491,1.37494 -18.49911,16.12423 -23.49887,15.49926c-4.99976,-0.62497 -27.24869,-5.62473 -27.99866,-8.62459c-0.74996,-2.99985 -8.2496,-8.12461 -6.49969,-11.74943c1.74992,-3.62483 1.87491,-2.62488 3.62483,-4.37479z" stroke-width="null" stroke="#2d68fc" fill="#2028fc"/>
 </g>
</svg>