<svg width="97" height="84" xmlns="http://www.w3.org/2000/svg">
 <!-- Created with Method Draw - http://github.com/duopixel/Method-Draw/ -->

 <g>
  <title>Layer 1</title>
  <path stroke="#ea313d" id="area-1" d="m1.424157,42.311801l20.162929,-41.112362l53.767806,0l20.162923,41.112362l-20.162923,41.112362l-53.767806,0l-20.162929,-41.112362z" stroke-width="1.5" fill="#FFC64C"/>
  <path id="area-2" d="m1.873595,42.110314c26.29214,-2.02247 31.011238,34.157297 33.03371,-19.55057c3.37079,-10.33708 13.70787,-13.93258 23.82023,-11.68539c10.11236,2.24719 14.38202,15.05618 14.38202,15.05618c0,0 7.415741,56.179786 -8.539321,22.696634c-15.955061,-33.483152 -26.741581,-10.337083 -25.617982,13.033709c1.123599,23.370792 38.539333,18.932584 36.797753,21.544944c-1.74157,2.61236 -46.573034,-2.668537 -53.426964,-0.196627" opacity="1" stroke="#005b5e" fill="#5fff0f"/>
 </g>
</svg>