<svg width="97" height="84" xmlns="http://www.w3.org/2000/svg">
 <!-- Created with Method Draw - http://github.com/duopixel/Method-Draw/ -->

 <g>
  <title>background</title>
  <rect fill="none" id="canvas_background" height="402" width="582" y="-1" x="-1"/>
 </g>
 <g>
  <title>Layer 1</title>
  <path fill="#FFC64C" stroke-width="1.5" d="m1.424157,42.311801l20.162929,-41.112362l53.767806,0l20.162923,41.112362l-20.162923,41.112362l-53.767806,0l-20.162929,-41.112362z" id="area-1" stroke="#ea313d"/>
  <path fill="#5fff0f" stroke="#005b5e" opacity="0.5" d="m1.545726,42.274248c26.29214,-2.02247 10.15473,-6.754474 23.033714,-1.517789c12.878984,5.236685 -5.144583,14.428066 4.967777,16.675256c10.11236,2.24719 -9.060596,21.449621 5.03776,8.826674c20.9836,-22.950812 -4.551468,-13.492322 19.493457,-17.795156c24.044925,-4.302834 -2.479294,9.826845 5.365614,20.57469c7.844908,10.747845 17.719668,11.719472 15.978088,14.331832c-1.74157,2.61236 -46.573034,-2.668537 -53.426964,-0.196627" id="area-2"/>
 </g>
</svg>