<svg width="97" height="84" xmlns="http://www.w3.org/2000/svg">
 <!-- Created with Method Draw - http://github.com/duopixel/Method-Draw/ -->

 <g>
  <title>background</title>
  <rect fill="none" id="canvas_background" height="402" width="582" y="-1" x="-1"/>
 </g>
 <g>
  <title>Layer 1</title>
  <path fill="#FFC64C" stroke-width="1.5" d="m1.424157,42.311801l20.162929,-41.112362l53.767806,0l20.162923,41.112362l-20.162923,41.112362l-53.767806,0l-20.162929,-41.112362z" id="area-1" stroke="#ea313d"/>
  <path fill="#5fff0f" stroke="#005b5e" opacity="0.5" d="m1.545726,42.110314c26.29214,-2.02247 21.466202,-17.246274 34.345186,-12.009589c12.878984,5.236685 7.970166,-2.621109 18.082526,-0.373919c10.11236,2.24719 34.382013,12.269296 16.185298,8.66274c-18.196715,-3.606556 -40.125227,14.212587 -16.080302,9.909753c24.044925,-4.302834 -2.479294,9.826845 5.365614,20.57469c7.844908,10.747845 17.719668,11.719472 15.978088,14.331832c-1.74157,2.61236 -46.573034,-2.668537 -53.426964,-0.196627" id="area-2"/>
  <path stroke="#d35f00" id="svg_2" d="m34.212181,68.402248c1.386077,-10.631846 2.541468,-1.078953 6.449322,-0.166241c3.907854,0.912712 2.076365,-27.416921 -4.063809,-16.91795c-6.140173,10.49897 -10.613718,-12.272658 -10.64029,-1.68782c-0.026572,10.584839 6.868701,29.403858 8.254777,18.772011z" fill="#ffc64c"/>
 </g>
</svg>