<svg width="97" height="84" xmlns="http://www.w3.org/2000/svg">
 <!-- Created with Method Draw - http://github.com/duopixel/Method-Draw/ -->
 <g>
  <title>Layer 1</title>
  <path stroke="#ea313d" id="svg_1" d="m1.424157,42.311801l20.162929,-41.112362l53.767806,0l20.162923,41.112362l-20.162923,41.112362l-53.767806,0l-20.162929,-41.112362z" stroke-width="1.5" fill="#FFC64C"/>
  <path id="svg_3" d="m1.873595,42.110314c26.29214,-2.02247 32.134834,-11.685401 33.03371,-19.55057c5.617981,-10.33708 7.865173,-1.123591 17.977533,1.123599c10.11236,2.24719 7.865167,-17.078652 22.02247,-22.471911c5.168539,9.887641 20.44945,39.775291 20.224725,42.471915c-0.224725,2.696625 -18.876413,37.303369 -19.325848,39.775284c-0.449434,2.471915 -19.887644,-18.370788 -32.415732,-15.983148c-12.528087,2.387641 -14.213482,13.061801 -21.067412,15.533711" opacity="0.5" stroke="#005b5e" fill="#5fff0f"/>
 </g>
</svg>