<svg width="97" height="84" xmlns="http://www.w3.org/2000/svg">
 <!-- Created with Method Draw - http://github.com/duopixel/Method-Draw/ -->

 <g>
  <title>background</title>
  <rect fill="none" id="canvas_background" height="402" width="582" y="-1" x="-1"/>
 </g>
 <g>
  <title>Layer 1</title>
  <path fill="#FFC64C" stroke-width="1.5" d="m1.424157,42.311801l20.162929,-41.112362l53.767806,0l20.162923,41.112362l-20.162923,41.112362l-53.767806,0l-20.162929,-41.112362z" id="area-1" stroke="#ea313d"/>
  <path fill="#5fff0f" stroke="#005b5e" d="m1.873595,42.110314c26.29214,-2.02247 20.226206,8.43352 34.471615,9.207521c14.245409,0.774002 18.845535,-7.267364 28.957895,-5.020174c10.11236,2.24719 8.388042,-40.608 9.604203,-45.086229c1.216161,-4.478229 20.44945,39.775291 20.224725,42.471915c-0.224725,2.696625 -18.876413,37.303369 -19.325848,39.775284c-0.449434,2.471915 -14.266744,-6.083239 -26.92555,-7.486439c-12.658807,-1.403201 -19.703664,4.565092 -26.557594,7.037002" id="area-2"/>
 </g>
</svg>