<svg width="97" height="84" xmlns="http://www.w3.org/2000/svg">
 <!-- Created with Method Draw - http://github.com/duopixel/Method-Draw/ -->

 <g>
  <title>background</title>
  <rect fill="none" id="canvas_background" height="402" width="582" y="-1" x="-1"/>
 </g>
 <g>
  <title>Layer 1</title>
  <path fill="#FFC64C" stroke-width="1.5" d="m1.424157,42.311801l20.162929,-41.112362l53.767806,0l20.162923,41.112362l-20.162923,41.112362l-53.767806,0l-20.162929,-41.112362z" id="area-1" stroke="#ea313d"/>
  <path fill="#5fff0f" stroke="#005b5e" d="m1.873595,42.110314c26.29214,-2.02247 12.004169,-0.312883 12.903045,-8.178052c5.617981,-10.33708 3.812897,-27.659467 13.925257,-25.412277c10.11236,2.24719 32.048108,-1.915294 46.205411,-7.308553c5.168539,9.887641 20.44945,39.775291 20.224725,42.471915c-0.224725,2.696625 -18.876413,37.303369 -19.325848,39.775284c-0.449434,2.471915 -3.155663,-32.357678 -13.592253,-15.460274c-10.436591,16.897405 -33.036961,12.538927 -39.890891,15.010837" id="area-2"/>
 </g>
</svg>