<svg width="97" height="84" xmlns="http://www.w3.org/2000/svg">
 <!-- Created with Method Draw - http://github.com/duopixel/Method-Draw/ -->

 <g>
  <title>background</title>
  <rect fill="none" id="canvas_background" height="402" width="582" y="-1" x="-1"/>
 </g>
 <g>
  <title>Layer 1</title>
  <path fill="#FFC64C" stroke-width="1.5" d="m1.42416,42.3118l20.16293,-41.11236l53.7678,0l20.16293,41.11236l-20.16293,41.11236l-53.7678,0l-20.16293,-41.11236z" id="area-1" stroke="#ea313d"/>
  <path fill="#5fff0f" stroke="#005b5e" d="m1.8736,42.11031c26.29214,-2.02247 39.29272,-4.52751 57.0337,15.39679c17.74098,19.92429 30.60201,-21.54464 7.66175,-30.24481c-22.94026,-8.70017 -5.81904,-20.6576 8.33826,-26.05086c5.16854,9.88764 20.44945,39.77529 20.22472,42.47192c-0.22472,2.69662 1.12359,-2.69663 0.67416,-0.22472c-0.44944,2.47192 -21.15082,27.31342 -33.67891,29.70106c-12.52808,2.38764 -32.95031,7.37759 -39.80424,9.8495" id="area-2"/>
 </g>
</svg>