<svg width="97" height="84" xmlns="http://www.w3.org/2000/svg">
 <!-- Created with Method Draw - http://github.com/duopixel/Method-Draw/ -->

 <g>
  <title>Layer 1</title>
  <path stroke="#ea313d" id="area-1" d="m1.424157,42.087082l20.162929,-41.112362l53.767806,0l20.162923,41.112362l-20.162923,41.112362l-53.767806,0l-20.162929,-41.112362z" stroke-width="1.5" fill="#FFC64C"/>
  <path id="area-2" d="m1.873595,42.110314c26.29214,-2.02247 18.876402,42.022467 20.22472,40.89887c1.348319,-1.123596 52.584277,0.674161 53.258434,0.449441c0.674157,-0.224719 -9.887643,-24.044943 -19.775285,-47.865169c-9.887642,-23.820225 39.775294,5.393267 39.550569,8.089891c-0.224725,2.696625 1.123588,-2.696632 0.674153,-0.224717c-0.449434,2.471915 -19.662926,-41.741575 -20.056182,-42.050564c-0.393256,-0.30899 -22.528089,34.634835 -54.775278,0.028092" opacity="1" stroke="#005b5e" fill="#5fff0f"/>
 </g>
</svg>