<svg width="97" height="84" xmlns="http://www.w3.org/2000/svg">
 <!-- Created with Method Draw - http://github.com/duopixel/Method-Draw/ -->

 <g>
  <title>background</title>
  <rect fill="none" id="canvas_background" height="402" width="582" y="-1" x="-1"/>
 </g>
 <g>
  <title>Layer 1</title>
  <path fill="#FFC64C" stroke-width="1.5" d="m1.42416,42.3118l20.16293,-41.11236l53.7678,0l20.16293,41.11236l-20.16293,41.11236l-53.7678,0l-20.16293,-41.11236z" id="svg_1" stroke="#ea313d"/>
  <path fill="#5fff0f" stroke="#005b5e" opacity="0.5" d="m1.8736,42.11031c0.554446,-0.383126 10.264942,19.067232 20.637019,30.697356c10.372077,11.630124 10.546379,-63.474209 23.609558,-65.981116c13.063178,-2.506906 19.379444,14.991817 27.307762,37.827732c4.733947,16.267072 22.748483,-5.47083 21.704091,-0.970932c-1.044392,4.499898 -18.87641,37.30337 -19.32585,39.77528c-0.44943,2.47192 -17.905536,-38.809763 -23.876241,-33.799174c-5.970706,5.01059 -9.474285,30.38602 -29.606899,33.349734" id="svg_3"/>
 </g>
</svg>