<svg width="97" height="84" xmlns="http://www.w3.org/2000/svg">
 <!-- Created with Method Draw - http://github.com/duopixel/Method-Draw/ -->

 <g>
  <title>background</title>
  <rect fill="none" id="canvas_background" height="402" width="582" y="-1" x="-1"/>
 </g>
 <g>
  <title>Layer 1</title>
  <path fill="#FFC64C" stroke-width="1.5" d="m1.42416,42.3118l20.16293,-41.11236l53.7678,0l20.16293,41.11236l-20.16293,41.11236l-53.7678,0l-20.16293,-41.11236z" id="area-1" stroke="#ea313d"/>
  <path fill="#5fff0f" stroke="#005b5e" opacity="0.5" d="m1.8736,42.11031c26.29214,-2.02247 -3.89823,15.42204 27.0833,5.73868c5.61798,-10.33708 5.38583,0.85989 15.49819,3.10708c10.11236,2.24719 9.1559,19.24598 27.49744,-0.72802c-15.59663,-13.98086 23.40423,-9.24133 23.1795,-6.5447c-0.22472,2.69662 -18.87641,37.30337 -19.32585,39.77528c-0.44943,2.47192 -11.62318,-26.80054 -24.15127,-24.4129c-12.52808,2.38764 -22.47794,21.49155 -29.33187,23.96346" id="area-2"/>
 </g>
</svg>