<svg width="97" height="84" xmlns="http://www.w3.org/2000/svg">
 <!-- Created with Method Draw - http://github.com/duopixel/Method-Draw/ -->
 <g>
  <title>Layer 1</title>
  <path stroke="#ea313d" id="area-1" d="m1.424157,42.087082l20.162929,-41.112362l53.767806,0l20.162923,41.112362l-20.162923,41.112362l-53.767806,0l-20.162929,-41.112362z" stroke-width="1.5" fill="#FFC64C"/>
  <path id="area-2" d="m1.873595,42.110314c26.29214,-2.02247 32.134834,-11.685401 33.03371,-19.55057c5.617981,-10.33708 7.865173,-1.123591 17.977533,1.123599c10.11236,2.24719 14.60674,-8.764045 20.674155,-2.696629c6.067415,6.067416 21.797765,20.000009 21.57304,22.696633c-0.224725,2.696625 1.123588,-2.696632 0.674153,-0.224717c-0.449434,2.471915 -19.662926,-41.741575 -20.056182,-42.050564c-0.393256,-0.30899 -47.921348,-2.443818 -54.775278,0.028092" opacity="0.5" stroke="#005b5e" fill="#5fff0f"/>
 </g>
</svg>