<svg width="97" height="84" xmlns="http://www.w3.org/2000/svg">
 <!-- Created with Method Draw - http://github.com/duopixel/Method-Draw/ -->

 <g>
  <title>background</title>
  <rect fill="none" id="canvas_background" height="402" width="582" y="-1" x="-1"/>
 </g>
 <g>
  <title>Layer 1</title>
  <path fill="#FFC64C" stroke-width="1.5" d="m1.424157,42.087082l20.162929,-41.112362l53.767806,0l20.162923,41.112362l-20.162923,41.112362l-53.767806,0l-20.162929,-41.112362z" id="area-1" stroke="#ea313d"/>
  <path fill="#5fff0f" stroke="#005b5e" d="m1.873595,42.110314c26.29214,-2.02247 1.388332,5.855002 24.129601,-4.071118c22.741269,-9.926121 0.330926,5.725724 25.511779,11.260585c25.180853,5.534861 13.647836,-6.846238 21.2221,-8.450054c7.574264,-1.603816 22.619683,0.136996 22.394958,2.83362c-0.224725,2.696625 1.123588,-2.696632 0.674153,-0.224717c-0.449434,2.471915 -19.662926,-41.741575 -20.056182,-42.050564c-0.393256,-0.30899 -47.921348,-2.443818 -54.775278,0.028092" id="area-2"/>
  <ellipse stroke="#005b5e" id="svg_2" cy="47" cx="40.006847" fill-opacity="null" stroke-opacity="null" stroke-width="null" fill="#5fff0f"/>
 </g>
</svg>