<svg width="97" height="84" xmlns="http://www.w3.org/2000/svg">
 <!-- Created with Method Draw - http://github.com/duopixel/Method-Draw/ -->

 <g>
  <title>background</title>
  <rect fill="none" id="canvas_background" height="402" width="582" y="-1" x="-1"/>
 </g>
 <g>
  <title>Layer 1</title>
  <path fill="#FFC64C" stroke-width="1.5" d="m1.424157,42.087082l20.162929,-41.112362l53.767806,0l20.162923,41.112362l-20.162923,41.112362l-53.767806,0l-20.162929,-41.112362z" id="area-1" stroke="#ea313d"/>
  <path fill="#5fff0f" stroke="#005b5e" d="m1.873595,42.110314c26.29214,-2.02247 17.888259,-33.740195 28.23919,-25.988926c19.72757,12.402646 19.919967,-12.904413 30.032327,-10.657223c10.11236,2.24719 17.894411,6.852393 13.413881,15.522549c-4.48053,8.670156 21.797765,20.000009 21.57304,22.696633c-0.224725,2.696625 1.123588,-2.696632 0.674153,-0.224717c-0.449434,2.471915 -19.662926,-41.741575 -20.056182,-42.050564c-0.393256,-0.30899 -47.921348,-2.443818 -54.775278,0.028092" id="area-2"/>
  <ellipse stroke="#005b5e" id="area-2" cy="47" cx="40.006847" fill-opacity="null" stroke-opacity="null" stroke-width="null" fill="#5fff0f"/>
  <path id="area-2" d="m23.97945,52.616438c8.356165,-26.575342 75.205478,-20.136986 53.424657,-4.79452c-21.780822,15.342465 0.684931,22.328766 -21.232876,20.410958c-21.917808,-1.917808 -31.369863,-8.49315 -31.643835,-8.767123c-0.273973,-0.273973 -1.643836,-1.369863 -0.547946,-6.849315z" fill-opacity="null" stroke-opacity="null" stroke-width="null" stroke="#005b5e" fill="#5fff0f"/>
 </g>
</svg>